<?xml version="1.0" encoding="utf-8"?>
<!-- Generator: Adobe Illustrator 18.1.1, SVG Export Plug-In . SVG Version: 6.00 Build 0)  -->
<svg version="1.1" id="Camada_1" xmlns="http://www.w3.org/2000/svg" xmlns:xlink="http://www.w3.org/1999/xlink" x="0px" y="0px"
	 viewBox="0 0 104.9 150" enable-background="new 0 0 104.9 150" xml:space="preserve">
<g>
	<path fill="#333333" d="M103.3,141.1c0.2-1.8-0.2-4.4-2.9-6.4c-1-0.8-1.9-1.3-2.8-1.9c-2.3-1.4-3.4-2.2-3.4-4.6
		c0-2.7,0.7-4.9,1.1-5.9h6.7v-8.9H99c0-2.2-0.3-7.9-1.7-14.7c-1.1-5.1-6.1-9.1-11-13.1c-3.7-2.9-7.1-5.7-8.7-8.7
		c-2.2-4.3-1.8-8.1-1.3-10.4c0.9,1.8,2.3,4.1,3.7,5.5c0.9,0.9,2.2,1.3,3.9,1.3c1.2,0,2.4-0.2,3.4-0.4c1-0.2,1.9-0.3,2.6-0.3
		c0.6,0.1,0.8,0.4,1.4,1.4c0.6,1,1.5,2.4,3.3,3.3c0.5,0.2,1,0.4,1.5,0.4c3.5,0,7.4-5.4,7.4-7.7c0-1.5-1.6-3.3-4.1-5.9
		c-1.8-1.9-4-4.3-5.8-6.9c-3.6-5.2-8.6-10.5-9.9-11.8l0.8-10.4L75,42.4c-0.3,0-0.7,0-1.2,0c-3,0-10.9,0.6-18.2,6.1V45h-4.4v-6.1
		h-2.3c0.5-2.2,1.9-7.1,4-9.1c0.4-0.4,0.9-0.8,1.4-1.3c2.5-2.2,4.9-4.3,4.2-6.2c-0.6-1.5-2.8-1.7-4.6-1.7h-2.6
		c-1-3.1-6-5.6-12.8-6.2c2.6-1.3,4.2-3.9,4.2-6.8c0-4.2-3.4-7.6-7.6-7.6c-4.2,0-7.6,3.4-7.6,7.6c0,2.9,1.7,5.6,4.3,6.8
		c-6.8,0.6-11.8,3-12.8,6.2h-2.6c-1.8,0-4,0.2-4.6,1.7c-0.7,1.9,1.7,3.9,4.2,6.2c0.5,0.5,1,0.9,1.4,1.3c2.2,2,3.5,6.9,4,9.1h-2.3V45
		H15V51h-3.4v8h8.2c0.2,10,0.1,28.4-1.2,32.2c-1.5,4.4-5.3,13.4-6.3,15.8H3.3v10.2h7.9c0.4,1.1,1.3,3.8,1.3,7.1c0,3-1.5,3.9-4.2,5.6
		c-1,0.6-2.1,1.3-3.3,2.2c-3.2,2.4-3.6,5.5-3.3,7.6H0V150h45h25.6h34.3v-8.9H103.3z M99,115.4h1.1v5H58.4c0.3-1.4,0.7-2.5,0.9-3.1
		h7.9v-1.9H99z M55.6,50.9c7.2-6,15.3-6.6,18.2-6.6c0.9,0,1.4,0,1.4,0.1l0.4,0l6.7-5.1l-0.5,6.9l0.3,0.3c0.1,0.1,5.9,6.1,10,11.9
		c1.9,2.8,4.2,5.2,6,7.2c1.7,1.8,3.5,3.8,3.5,4.5c0,1.3-3.1,5.7-5.4,5.7c-0.2,0-0.4,0-0.7-0.2c-1.3-0.7-1.9-1.6-2.5-2.5
		c-0.6-1-1.3-2.1-2.9-2.3c-0.8-0.1-1.9,0.1-3.1,0.3c-1,0.2-2.1,0.4-3.1,0.4c-1.1,0-2-0.2-2.5-0.8c-2.1-2-4.3-7-4.3-7l-0.8-1.9
		l-1,1.9c-0.1,0.3-3.4,6.7,0.5,14.3c1.7,3.3,5.4,6.3,9.2,9.3c4.6,3.7,9.4,7.5,10.3,11.9c1.4,6.4,1.6,12.1,1.7,14.2H67.3V107h-8.9
		c-1-2.4-4.8-11.4-6.3-15.8c-1.3-3.8-1.4-22.2-1.2-32.2H59v-8h-3.4V50.9z M19,28.3c-0.4-0.4-1-0.9-1.5-1.3c-1.2-1.1-3.7-3.3-3.7-4
		c0,0,0.4-0.5,2.8-0.5h4.3l0.1-0.9c0.2-2.3,4.9-5,12.5-5.4l0.9,0v-3L33.7,13c-2.4-0.7-4-2.9-4-5.4c0-3.1,2.5-5.6,5.6-5.6
		c3.1,0,5.6,2.5,5.6,5.6c0,2.5-1.7,4.7-4,5.4l-0.7,0.2v3l0.9,0c7.6,0.4,12.3,3,12.5,5.4l0.1,0.9H54c2.3,0,2.7,0.4,2.7,0.4
		c0.1,0.7-2.5,2.9-3.7,4c-0.5,0.5-1.1,0.9-1.5,1.3c-2.7,2.6-4.2,8.4-4.7,10.6H23.7C23.2,36.7,21.7,30.9,19,28.3z M21.3,40.9h0.7
		h25.6h1.6V45H21.3V40.9z M16.9,46.9h2.4h31.9h2.4V50v1h-1.1H16.9V46.9z M19.7,57.1h-6.2V53H15h35.7h2.7h2.3h1.5v4.1h-6.2H50h-2.4
		H19.7z M20.4,91.9c1.7-4.8,1.4-27.7,1.3-32.8h24.9h2.3h0.1c-0.1,5.2-0.4,28.1,1.3,32.8c1.4,4.1,4.7,11.9,6,15.1h-4.9h-2h-35
		C15.7,103.9,19,96,20.4,91.9z M5.3,115.3V109h6.1h38.4h2h7.5h6.1v4.4v1.9H47.8H5.3z M6.3,133.7c1.1-0.8,2.2-1.5,3.1-2.1
		c2.8-1.8,5.1-3.2,5.1-7.2c0-3.1-0.7-5.6-1.2-7.1h34.4h2h7.5c-0.3,0.8-0.6,1.8-0.8,3.1c-0.2,1.2-0.4,2.5-0.4,4c0,2,0.5,3.4,1.4,4.4
		c0.9,1.1,2.2,1.9,3.6,2.8c0.9,0.6,2,1.3,3.1,2.1c2.9,2.2,2.7,4.8,2.5,6H48.5h-2H3.9C3.6,138.6,3.4,135.9,6.3,133.7z M68.6,143v5H47
		h-2H2v-6.3h0.5H45h23.1h0.5V143z M68.7,139.8c0.3-2.1-0.1-5.2-3.3-7.6c-1.2-0.9-2.3-1.6-3.3-2.2c-2.7-1.7-4.1-2.6-4.1-5.6
		c0-0.7,0-1.4,0.1-2h35.1c-0.4,1.3-1,3.4-1,5.9c0,3.5,2,4.8,4.4,6.3c0.8,0.5,1.7,1.1,2.6,1.8c2.3,1.7,2.2,3.8,2,4.8H70.6v-1.3H68.7z
		 M102.9,148H70.6v-5h32.2h0.2V148z"/>
</g>
</svg>
