<?xml version="1.0" encoding="utf-8"?>
<!-- Generator: Adobe Illustrator 18.1.1, SVG Export Plug-In . SVG Version: 6.00 Build 0)  -->
<svg version="1.1" id="Camada_1" xmlns="http://www.w3.org/2000/svg" xmlns:xlink="http://www.w3.org/1999/xlink" x="0px" y="0px"
	 viewBox="0 0 150 124.8" enable-background="new 0 0 150 124.8" xml:space="preserve">
<g>
	<path fill="#333333" d="M147.5,34.9c0-11.2-9.1-20.3-20.3-20.3h-18.9l-6.1-10.8C101.1,2,98.7,0,93.6,0H56.4c-5.1,0-7.6,2-8.7,3.8
		l-6,10.8h-2.4c-1.5-2.2-5.7-3.7-10.7-3.7c-5.6,0-10.1,1.8-11,4.4c-8.8,2.4-15.1,10.4-15,19.4L0,104.4c0,11.2,9.1,20.3,20.3,20.3
		h109.3c11.2,0,20.3-9.2,20.3-20.6L147.5,34.9z M2.1,104.5l2.5-69.8c0-1.3,0.2-2.7,0.4-3.9V31h10.1C22.8,31,29,37.4,29,45.4
		l1.7,48.5c0,4-1.5,7.8-4.3,10.5c-2.6,2.6-6,4-9.5,4H2.5C2.3,107.1,2.1,105.8,2.1,104.5z M129.7,122.7H20.3
		c-7.9,0-14.7-5.1-17.2-12.2h13.8c4.1,0,8.1-1.6,11-4.6c3.2-3.2,4.9-7.4,4.9-12.1l-1.7-48.5c0-9.1-7.1-16.5-15.9-16.5H5.6
		c2-5.7,6.9-10.3,13-11.7l0.7-0.2l0.1-0.7c0.1-1.3,3.5-3.3,9.1-3.3c4.9,0,8.5,1.6,9.1,3l0.3,0.7h5l6.6-11.8c1.2-1.8,3.6-2.8,6.9-2.8
		h37.1c3.3,0,5.7,1,6.8,2.7l6.6,11.9h20.1c10,0,18.2,8.2,18.2,18.2l2.5,69.4C147.9,114.4,139.7,122.7,129.7,122.7z"/>
	<path fill="#333333" d="M92,33.5c21,0,38,17,38,38s-17,38-38,38s-38-17-38-38S71,33.5,92,33.5 M92,31.5c-22.1,0-40,17.9-40,40
		s17.9,40,40,40s40-17.9,40-40S114,31.5,92,31.5L92,31.5z"/>
	<path fill="#333333" d="M91.7,41.2c16.8,0,30.5,13.7,30.5,30.5s-13.7,30.5-30.5,30.5S61.2,88.5,61.2,71.7S74.9,41.2,91.7,41.2
		 M91.7,39.2c-17.9,0-32.5,14.6-32.5,32.5s14.6,32.5,32.5,32.5s32.5-14.6,32.5-32.5S109.7,39.2,91.7,39.2L91.7,39.2z"/>
</g>
</svg>
