<?xml version="1.0" encoding="utf-8"?>
<!-- Generator: Adobe Illustrator 18.1.1, SVG Export Plug-In . SVG Version: 6.00 Build 0)  -->
<svg version="1.1" id="Camada_1" xmlns="http://www.w3.org/2000/svg" xmlns:xlink="http://www.w3.org/1999/xlink" x="0px" y="0px"
	 viewBox="0 0 131 150" enable-background="new 0 0 131 150" xml:space="preserve">
<g>
	<path fill="#F2F2F2" d="M87.8,40.6c0.2,0.3,0.6,0.5,0.9,0.5c0.2,0,0.3,0,0.5-0.1c0.7-0.3,1.1-1.2,1.3-1.9l2.1-8.2
		c0.1-0.4,0.1-0.8,0-1.2c-0.2-0.7-0.9-1-1.6-0.7c-0.4,0.2-0.7,0.5-0.8,0.8c-0.2,0.3-0.4,0.7-0.4,1l-2.1,8.2
		C87.4,39.7,87.5,40.2,87.8,40.6z"/>
	<path fill="#F2F2F2" d="M32,131.2c-0.5-0.1-1-0.2-1.5-0.2c-3.1,0-5.7,2.1-6.4,5.1c-0.8,3.5,1.4,7.1,4.9,7.9c0.5,0.1,1,0.2,1.5,0.2
		c0,0,0,0,0,0c3.1,0,5.7-2.1,6.4-5.1c0.4-1.7,0.1-3.5-0.8-5C35.1,132.6,33.7,131.6,32,131.2z M35,138.6c-0.5,2.1-2.3,3.6-4.5,3.6
		c-0.4,0-0.7,0-1.1-0.1c-2.5-0.6-4-3.1-3.5-5.5c0.5-2.1,2.3-3.6,4.5-3.6c0.4,0,0.7,0,1.1,0.1c1.2,0.3,2.2,1,2.9,2.1
		C35,136.2,35.2,137.4,35,138.6z"/>
	<path fill="#F2F2F2" d="M124.6,5l-0.2-0.2l-3.8-0.9L116.8,20l-4.7,3.6l-6.4-1.5l-1.5-5l3.8-16.2l-4-0.9l-0.2,0
		C100.6,0.5,89,6.9,85,16l-0.4,1.2L78,15.7l0.8,12.6l-0.1,0l0.1,1.4l0,0.6c0.1,1.8,0,7.6-2.4,18c-0.9,3.9-6.6,13.4-14,24.6l-3.9-5.5
		l1.5-1c1-0.7,1.5-2,1.1-3.1c-0.6-1.8-0.7-3.7-0.4-5.6c0.2-1,0-1.9-0.5-2.6L27.1,7.7l-0.9-1.3l-0.3,0.2c-0.4-0.3-0.8-0.6-1.3-0.8
		c0.2-1.5-0.3-3.1-1.3-4.2c-1-1-2.3-1.6-3.8-1.6c-1.2,0-2.4,0.4-3.3,1L2.5,10.6c-2.4,1.7-2.9,5-1.3,7.3c0.7,1,1.8,1.8,3.1,2
		c0,0.5,0.1,1,0.3,1.4l-0.3,0.2l34.1,48.7c0.5,0.7,1.3,1.2,2.3,1.4c1.8,0.3,3.6,1,5,2.2c0.9,0.7,2.3,0.7,3.2,0l2.3-1.6l5.9,8.3
		c-14.5,21.2-32.2,45-35.3,49.3c-1.5,2-2.4,3.6-2.9,5.7c-0.7,3.2-0.3,6.4,1.4,9c1.6,2.5,4.1,4.3,7,5c0.9,0.2,1.8,0.3,2.7,0.3
		c4.1,0,7.9-2.1,10-5.6l28.8-47l18.8,26.8l-0.4,0.5l2.6,6.3c0.3,0.8,0.8,1.5,1.3,2.2l11.3,14l9-6.3l-9.2-15.4c-0.4-0.7-1-1.4-1.6-2
		l-5.1-4.6l-0.6,0.2l-21-30l11-18c0.1-0.2,12.1-17.8,24.2-23c9.8-4.2,13.2-6.5,14.3-7.4l0,0l0.1-0.1c0.1-0.1,0.2-0.2,0.3-0.2
		c0.7-0.6,5.4-4.9,6-7.6C133.7,15.6,125,5.5,124.6,5z M47.9,72.4c-0.2,0.2-0.5,0.3-0.9,0c-1.7-1.4-3.8-2.2-6-2.6
		c-0.4-0.1-0.8-0.3-1-0.6L7,22l-0.3-0.6c-0.4-0.7-0.5-1.5-0.4-2.1l0.2-1.1l-1.1,0c-1.1,0-2-0.5-2.6-1.3c-1-1.5-0.7-3.6,0.8-4.6
		l13.7-9.6C18,2.2,18.8,2,19.5,2c0.9,0,1.8,0.3,2.3,1c0.8,0.8,1.1,2,0.7,3.2l-0.3,1.1l1.1,0.2c0.6,0.1,1.3,0.5,1.8,1l0.5,0.6
		l33,47.1c0.2,0.3,0.3,0.7,0.2,1.1c-0.4,2.2-0.3,4.4,0.4,6.6c0.1,0.3,0,0.6-0.3,0.8l-3.1,2.2l5.4,7.7l-3,4.3l-6.5-9.3L47.9,72.4z
		 M94.9,121.1l4.3,3.9c0.5,0.4,0.9,1,1.3,1.5l8.3,13.9l-6,4.2L92.5,132c-0.4-0.5-0.8-1.1-1-1.7l-2.2-5.3l0.5-0.8l-20-28.6l2.8-4.6
		L94,121.3L94.9,121.1z M86.9,16.7c3.7-8.4,14.4-14.1,17-14.7l1.7,0.4L102,17.2l1.3,4.4l-16.9-3.9L86.9,16.7z M108.2,46.3
		c-12.6,5.5-24.5,23-25,23.8L72.6,87.3l0,0l-0.8,1.3l-33.5,54.7c-1.7,2.9-4.9,4.6-8.3,4.6c-0.7,0-1.5-0.1-2.2-0.3
		c-2.4-0.6-4.5-2-5.8-4.1c-1.4-2.2-1.8-4.9-1.1-7.5c0.4-1.8,1.1-3.2,2.5-5c5.6-7.5,25.6-34.5,39.9-56.1l0.4-0.5l0,0
		c7.7-11.7,13.7-21.6,14.7-25.9c2.3-9.7,2.5-15.4,2.5-17.9l5.6,1.3L84,42.5l15.9,3.7l2.4-10.4l18.3,4.3
		C118.9,41.3,115.2,43.2,108.2,46.3z M88.8,30.7l0.6-2.8l0-0.1l12,2.8l-3,13.3L86.4,41l2-8.4l0,0L88.8,30.7L88.8,30.7z M127.8,32.3
		c-0.4,1.5-3.2,4.5-5.1,6.3l-20-4.7l1.1-4.8l-15.9-3.7l-1,4.9l-6.1-1.4l-0.6-10.6l3.8,0.9l0,0l22.4,5.2l0,0l6.2,1.4l6-4.6L122,6.3
		l1.3,0.3C124.5,8.1,131.2,17.6,127.8,32.3z"/>
	<path fill="#F2F2F2" d="M91.6,41.5c0.2,0.3,0.6,0.5,0.9,0.5c0.2,0,0.3,0,0.5-0.1c0.7-0.3,1.1-1.2,1.3-1.9l2.1-8.2
		c0.1-0.4,0.1-0.8,0-1.2c-0.2-0.7-0.9-1-1.6-0.7c-0.4,0.2-0.7,0.5-0.8,0.8c-0.2,0.3-0.4,0.7-0.4,1l-2.1,8.2
		C91.3,40.6,91.3,41.1,91.6,41.5z"/>
	<path fill="#F2F2F2" d="M95.4,42.4c0.2,0.3,0.6,0.5,0.9,0.5c0.2,0,0.3,0,0.5-0.1c0.7-0.3,1.1-1.2,1.3-1.9l2.1-8.2
		c0.1-0.4,0.1-0.8,0-1.2c-0.2-0.7-1-1-1.6-0.7c-0.4,0.2-0.7,0.5-0.8,0.8c-0.2,0.3-0.4,0.7-0.4,1l-2.1,8.2
		C95.1,41.4,95.2,42,95.4,42.4z"/>
	<path fill="#F2F2F2" d="M12,22.8l28.7,41l3.9-2.8L16,20L12,22.8z M41.2,61L14.8,23.2l0.7-0.5l26.4,37.8L41.2,61z"/>
	<path fill="#F2F2F2" d="M20.8,16.7l28.7,41l3.9-2.8l-28.7-41L20.8,16.7z M50,54.9L23.5,17.1l0.7-0.5l26.5,37.8L50,54.9z"/>
</g>
</svg>
