<?xml version="1.0" encoding="utf-8"?>
<!-- Generator: Adobe Illustrator 18.1.1, SVG Export Plug-In . SVG Version: 6.00 Build 0)  -->
<svg version="1.1" id="Camada_1" xmlns="http://www.w3.org/2000/svg" xmlns:xlink="http://www.w3.org/1999/xlink" x="0px" y="0px"
	 viewBox="-50 -48 150 140.8" enable-background="new -50 -48 150 140.8" xml:space="preserve">
<g>
	<path fill="#F2F2F2" d="M99.9,83v-0.4c0-0.2-0.1-0.4-0.2-0.6c-0.3-1-1-1.8-2.4-2.3l-8.6-2.5h2c4.8,0,8.3-3.5,8.3-8.3V-17
		c0-2.9-1.5-5.5-3.8-7l-1.3,1.5c1.9,1.1,3.1,3.1,3.1,5.4v85.9c0,3.7-2.6,6.3-6.3,6.3h-8.8H-30.2h-8.6c-3.5,0-6.3-2.8-6.3-6.3v-85.9
		c0-3.5,2.8-6.3,6.3-6.3H65.9c0.4-0.7,0.8-1.3,1.3-2h-106c-4.5,0-8.2,3.7-8.2,8.3v85.9c0,4.6,3.7,8.3,8.2,8.3h1l-9.9,2.6
		c-1.4,0.2-2,1.2-2.1,2.7l0,0v0.1c0,0.4,0,0.7,0,1.1l-0.2,2.9c0,4.1,2.4,6.4,6.6,6.4h135c5.3-0.2,7.8-2.2,8.1-6.5v-1.8
		C99.9,84.1,99.9,83.5,99.9,83z M-47.9,83.9 M-47.2,81.7l17.2-4.5H81.8l14.9,4.4L-47.2,81.7z M91.7,90.8h-135
		c-3.2,0-4.7-1.4-4.7-4.4l0.1-3H97.9v2.8C97.7,88.9,96.6,90.6,91.7,90.8z"/>
	<path fill="#F2F2F2" d="M62.9-18.7h-99.4c-2.2,0-4,1.8-4,4v81.4c0,2.2,1.8,4,4,4H88.4c2.2,0,4-1.8,4-4v-81.5c0-1.5-0.9-2.8-2.1-3.5
		c-0.4,0.5-1.2,1.5-1.6,2c0.8,0.2,1.4,0.6,1.4,1.5v81c0,1.1-0.9,2-2,2H-36.1c-1.1,0-2-0.9-2-2v-80.7c0-1.1,0.9-2,2-2h97
		C61.3-17.1,62.5-18.1,62.9-18.7z"/>
	<path fill="#F2F2F2" d="M-21.5-5.6h75.7c0.2-0.3,0.8-1.1,1-1.4H-22c-1.1,0-2,0.9-2,2v8.7c0,1.1,0.9,2,2,2h68.9
		c0.2-0.3,0.7-1.2,1-1.5h-69.4c-0.6,0-1-0.4-1-1v-7.8C-22.5-5.1-22-5.6-21.5-5.6z"/>
	<path fill="#F2F2F2" d="M75.9,3.8v-5c-0.3,0.4-1.2,1.3-1.5,1.7v2.9c0,0.5-0.4,1-1,1h-2.1C71,4.7,70.2,5.6,70,5.9h4
		C75,5.7,75.9,4.9,75.9,3.8z"/>
	<path fill="#F2F2F2" d="M-22,6.9c-1.1,0-2,0.9-2,2v47.6c0,1.1,0.9,2,2,2H4.8c1.1,0,2-0.9,2-2V8.9c0-1.1-0.9-2-2-2H-22z M5.5,9.3
		v46.8c0,0.5-0.4,1-1,1h-26.3c-0.6,0-1-0.4-1-1V9.3c0-0.5,0.4-1,1-1H4.5C5.1,8.3,5.5,8.8,5.5,9.3z"/>
	<path fill="#F2F2F2" d="M8,8.9v37.6c0.1-0.7,1-1.6,1.5-2.1V9.4c0-0.5,0.4-1,1-1H45c0.2-0.3,1-1.2,1.3-1.5H10C8.9,6.9,8,7.8,8,8.9z"
		/>
	<path fill="#F2F2F2" d="M8,47.6v8.9c0,1.1,0.9,2,2,2h63.9c1.1,0,2-0.9,2-2V8.9c0-1.1-0.9-2-2-2h-5c-0.3,0.3-0.9,1.2-1.1,1.5h5.7
		c0.6,0,1,0.4,1,1V56c0,0.5-0.4,1-1,1h-63c-0.6,0-1-0.4-1-1v-6.1C9,49.4,8.1,48.3,8,47.6z"/>
	<path fill="#F2F2F2" d="M50.4,2.2C46.9,7.6,43.3,13,39.8,18.3c-1.5,2.2-3,4.5-4.5,6.7c-1.2,1.8-1.4,3.1-0.5,4.4
		c-1.4-0.5-2.7-0.8-4-0.8l0,0c-4.4,0-7.7,3-9,8.1c-0.1,0.5-0.3,1-0.5,1.6c-0.2,0.4-0.3,0.9-0.5,1.3c-1,3.4-3,4.9-6.4,5h-0.4
		c-0.6,0-1.3,0-1.9,0.1c-0.4,0-0.8,0.1-1.1,0.1c-0.1,0-0.3,0-0.4,0.1C9.7,45,8.9,46,9,47v0.4c0.1,0.8,0.6,1.5,1.4,1.7
		c0.1,0,0.2,0.1,0.3,0.1c0.3,0.1,0.6,0.2,1,0.3c3.1,0.7,6.3,1,9.4,1c3.5,0,7.1-0.4,10.6-1.2c3-0.7,5.9-1.8,8.5-3.2
		c3.6-2,4.6-6,2.6-10c-0.2-0.3-0.3-0.6-0.5-0.9c0.1,0,0.2,0,0.3,0c1.6,0,2.5-1.2,3.1-2c0.4-0.5,0.9-1.1,1.3-1.7
		c0.6-0.8,1.1-1.5,1.7-2.2C63.4,11.8,78.3-5.5,93.1-23l2.6-3.1c1.9-2.2,3.2-4.8,3.9-7.6c1-3.9,0.4-7.7-1.7-10.4
		c-1.8-2.4-4.6-3.8-7.9-3.9c0,0,0,0-0.1,0h-0.1c-4.4,0.2-8.3,2.7-11.3,7.2c-4.8,7.3-9.6,14.7-14.3,21.9C59.6-11.8,55-4.8,50.4,2.2z
		 M39.1,44.3c-2.5,1.4-5.2,2.4-8,3c-3.4,0.8-6.8,1.2-10.2,1.2c-3,0-6-0.3-9-1c-0.4-0.1-0.7-0.2-1.1-0.3c0-0.1,0-0.2,0-0.4
		c0.4-0.1,0.9-0.2,1.3-0.2c0.8,0,1.5-0.1,2.3-0.1c4.1-0.1,6.9-2.1,8.2-6.4c0.3-1,0.7-2,1-3c1.2-4.8,4-6.6,7.1-6.6l0,0l0,0
		c1.5,0,3,0.4,4.5,1.1c2.3,1.1,4.3,2.8,5.6,5.2C42.3,39.9,41.8,42.8,39.1,44.3z M80.1-39.6c2.5-3.8,5.8-6.1,9.7-6.3
		c6.1,0.2,9.3,5.5,7.8,11.9c-0.6,2.6-1.8,4.8-3.5,6.8C78.4-8.7,62.7,9.8,47,28.2c-1.1,1.2-2,2.6-3,3.9c-0.6,0.8-1.1,1.2-1.5,1.2
		S41.6,33,41,32.4c-1.2-1-2.4-2-3.5-3.1c-1.4-1.2-1.4-1.6-0.4-3.2L52.2,3.4L80.1-39.6z"/>
	<path fill="#F2F2F2" d="M82.9-38.1c0.6,0.6,1.6,0.6,2.3-0.1c1.7-1.8,3.3-3.5,5-5.3c-0.1,0-0.3,0-0.4,0c-2.8,0-5.2,0.9-7.1,3.2
		C82.2-39.6,82.3-38.7,82.9-38.1L82.9-38.1z"/>
</g>
</svg>
