<?xml version="1.0" encoding="utf-8"?>
<!-- Generator: Adobe Illustrator 18.1.1, SVG Export Plug-In . SVG Version: 6.00 Build 0)  -->
<svg version="1.1" id="Camada_1" xmlns="http://www.w3.org/2000/svg" xmlns:xlink="http://www.w3.org/1999/xlink" x="0px" y="0px"
	 viewBox="0 0 150 150" enable-background="new 0 0 150 150" xml:space="preserve">
<g>
	<g>
		<path fill="#333333" d="M75.4,111.2l-5.6-0.3c-6.8-0.2-14.2-0.8-21.3-3c-1.5-0.5-3.1-1.2-5-2.3c-1.7-1-2.6-2.8-2.3-4.9
			c0.6-5.1,3-9.6,7.6-14.3c4.5-4.6,9.8-8,15.9-9.9c-0.7-0.7-1.5-1.4-2.2-2.1c-5.9-6.8-7.8-13.7-6-21.3c2-8.3,9.7-14.3,18.4-14.3
			c0.9,0,1.8,0.1,2.7,0.2c9.7,1.4,16.9,10.1,16.3,19.7c-0.4,7.1-3.4,13.1-8.8,17.7c3.7,1.2,7,2.8,9.9,4.8
			c6.8,4.7,10.9,9.9,12.9,16.2c1.7,5.3,0.4,7.9-4.8,9.8c-3.9,1.5-8.4,2.4-13.5,2.9c-3.3,0.3-6.7,0.5-9.9,0.7
			C78.4,111,76.9,111.1,75.4,111.2L75.4,111.2z M68.7,78.2h12.5l-1.4,1.7c-0.1,0.2-0.3,0.4-0.4,0.5c-0.4,0.5-0.8,1-1.4,1.5
			c-0.4,0.3-0.4,0.5-0.1,1.2c1.2,2.8,2.4,5.7,3.6,8.5c1.1,2.6,2.1,5.1,3.2,7.7c0.5,1.2,0.3,2.2-0.7,3.1l-6.9,6.6
			c0.9-0.1,1.7-0.1,2.6-0.2c3.2-0.2,6.6-0.4,9.9-0.7c5-0.4,9.3-1.3,13-2.7c4.2-1.6,4.9-3.1,3.6-7.3c-1.9-5.9-5.7-10.7-12.2-15.2
			c-3.2-2.2-6.8-3.9-11-5l-1.7-0.5l1.6-1.5c0.2-0.2,0.4-0.4,0.6-0.5c5.3-4.4,8.2-10,8.6-16.7C92.5,50,86.1,42.3,77.4,41
			c-0.8-0.1-1.6-0.2-2.4-0.2c-7.8,0-14.7,5.4-16.5,12.7c-1.6,6.9,0.2,13.2,5.6,19.5c0.6,0.7,1.4,1.4,2.2,2.1c0.4,0.3,0.8,0.7,1.1,1
			l1.2,1.1L66.7,78c-0.2,0.1-0.5,0.2-0.7,0.2c-6.1,1.8-11.4,5-15.8,9.5c-4.2,4.4-6.4,8.6-7,13.2c-0.2,1.4,0.3,2.4,1.3,3
			c1.7,1,3.2,1.7,4.6,2.1c6.9,2.1,14,2.6,20.8,2.9l3,0.2l-6.8-6.5c-1.3-1.3-1.1-2.4-0.7-3.4c1.2-2.9,2.4-5.8,3.6-8.6
			c1-2.5,2.1-5,3.2-7.6c0.2-0.6,0.2-0.6-0.1-0.9c-0.6-0.5-1-1.1-1.5-1.6c-0.2-0.2-0.3-0.4-0.5-0.6L68.7,78.2z M73.1,80.2
			c0.1,0.1,0.3,0.3,0.4,0.4c1.2,1.1,0.9,2.3,0.5,3.1c-1.1,2.5-2.1,5-3.2,7.6c-1.2,2.9-2.4,5.8-3.6,8.7c-0.3,0.6-0.2,0.8,0.2,1.2
			l7.6,7.2l7.6-7.3c0.4-0.4,0.4-0.5,0.2-0.9c-1.1-2.6-2.1-5.1-3.2-7.7c-1.2-2.8-2.3-5.7-3.6-8.5c-0.4-1-0.7-2.2,0.6-3.4
			c0.1-0.1,0.2-0.1,0.2-0.2H73.1z"/>
	</g>
	<g>
		<path fill="#333333" d="M75,139.3c-35.4,0-64.3-28.8-64.3-64.3S39.5,10.7,75,10.7c35.4,0,64.3,28.8,64.3,64.3
			S110.4,139.3,75,139.3z M75,12.7c-34.3,0-62.3,27.9-62.3,62.3s27.9,62.3,62.3,62.3s62.3-27.9,62.3-62.3S109.3,12.7,75,12.7z"/>
	</g>
	<g>
		<rect x="0" y="74" fill="#333333" width="18.8" height="2"/>
	</g>
	<g>
		<rect x="131.3" y="74" fill="#333333" width="18.8" height="2"/>
	</g>
	<g>
		<rect x="74" y="131.3" fill="#333333" width="2" height="18.8"/>
	</g>
	<g>
		<rect x="74" y="0" fill="#333333" width="2" height="18.8"/>
	</g>
</g>
</svg>
