<?xml version="1.0" encoding="utf-8"?>
<!-- Generator: Adobe Illustrator 18.1.1, SVG Export Plug-In . SVG Version: 6.00 Build 0)  -->
<svg version="1.1" id="Camada_1" xmlns="http://www.w3.org/2000/svg" xmlns:xlink="http://www.w3.org/1999/xlink" x="0px" y="0px"
	 viewBox="0 0 109 152" enable-background="new 0 0 109 152" xml:space="preserve">
<g>
	<g>
		<path fill="#333333" d="M32.2,152c-0.2,0-0.3,0-0.5-0.1c-0.3-0.2-0.5-0.5-0.5-0.9v-49.9c-0.7,0.1-1.3,0.2-2,0.3
			c-1.5,0.3-2.5-0.3-3.1-1.8c-0.7-1.7-1.4-3.5-2.1-5.2c-0.7-1.6-1.4-3.3-2-4.9c-0.6-1.5-1.5-2.4-2.9-2.9c-1.8-0.7-3.5-1.4-5.2-2.1
			c-1.7-0.7-3.3-1.4-5-2c-1.4-0.5-1.9-1.4-1.7-2.9C7.4,77.3,7.7,75,8,72.8c0.2-1.4,0.4-2.9,0.6-4.3c0.2-1.5-0.1-2.7-1-3.9
			c-1.1-1.4-2.1-2.7-3.2-4.1c-1.1-1.5-2.2-3-3.4-4.4c-1.1-1.4-1.1-2.6,0-3.9c1.1-1.3,2.1-2.7,3.1-4.1c1.1-1.4,2.2-2.9,3.3-4.3
			c1-1.3,1.4-2.6,1.1-4.5c-0.4-2.8-0.8-5.6-1.1-8.4L7,27.5c-0.1-0.4,0.2-0.9,0.6-1.1c1.1-0.5,2.2-0.9,3.3-1.4
			c2.6-1.1,5.4-2.3,8.1-3.3c1.5-0.6,2.4-1.5,3-3c1-2.7,2.1-5.2,3.3-8c0.5-1.1,0.9-2.2,1.4-3.3c0.2-0.4,0.6-0.7,1.1-0.6
			C28.8,7,29.9,7.1,31,7.2c2.5,0.3,5.1,0.6,7.7,1.1c2.5,0.4,4.3,0,6.1-1.5c1.3-1.1,2.7-2.2,4.1-3.2c1.2-0.9,2.4-1.8,3.5-2.7
			c1.7-1.4,3-0.8,4.1,0c1.6,1.3,3.2,2.5,4.8,3.7c1.2,0.9,2.5,1.9,3.7,2.8c1.1,0.8,2.2,1.2,3.4,1c3-0.4,6-0.8,9.1-1.2l3.5-0.5
			c0.4,0,0.9,0.2,1,0.6l0.3,0.7c0.2,0.5,0.5,1,0.7,1.5l1,2.3c0.9,2.2,1.9,4.5,2.8,6.8c0.6,1.6,1.6,2.5,3.1,3.1
			c2.7,1,5.2,2.1,7.9,3.3c1.1,0.5,2.2,0.9,3.4,1.4c0.4,0.2,0.7,0.6,0.6,1c-0.1,0.9-0.2,1.8-0.3,2.7c-0.2,2-0.4,4.2-0.9,6.2
			c-0.9,4-0.2,7,2.5,9.8c1.5,1.5,2.7,3.3,4,5c0.6,0.8,1.1,1.5,1.7,2.3c0.3,0.4,0.3,0.9,0,1.2c-0.7,1-1.5,1.9-2.2,2.9
			c-1.7,2.3-3.4,4.5-5.2,6.7l0,0c-1.1,1.4-1.5,2.8-1.2,4.8c0.4,2.7,0.8,5.5,1.1,8.2c0.1,1.2,0.3,2.3,0.4,3.5
			c0.1,0.4-0.2,0.9-0.6,1.1c-1.1,0.5-2.2,0.9-3.3,1.4c-2.6,1.1-5.3,2.2-7.9,3.3c-1.6,0.6-2.6,1.6-3.2,3.3c-0.7,1.8-1.5,3.7-2.2,5.4
			c-0.6,1.5-1.3,3-1.9,4.5c-0.5,1.4-1.5,1.9-2.9,1.7c-0.7-0.1-1.5-0.2-2.2-0.3V151c0,0.4-0.2,0.7-0.5,0.9c-0.3,0.2-0.7,0.2-1,0
			l-0.6-0.3c-0.4-0.2-0.7-0.4-1.1-0.6c-1.6-1-3.1-2-4.7-3c-4.2-2.6-8.4-5.3-12.6-8.1c-1.9-1.3-3.4-1.3-5.4,0
			c-4.1,2.7-8.4,5.4-12.5,8c-1.6,1-3.1,2-4.7,2.9c-0.3,0.2-0.7,0.4-1.1,0.7l-0.6,0.4C32.5,152,32.3,152,32.2,152z M33.2,100.8v48.5
			c0.1,0,0.1-0.1,0.2-0.1c1.6-1,3.1-2,4.7-2.9c4.1-2.6,8.4-5.3,12.5-8c2.7-1.8,5-1.8,7.6,0c4.1,2.7,8.4,5.4,12.6,8
			c1.6,1,3.1,2,4.7,3c0,0,0.1,0,0.1,0.1v-48.4c-0.1,0-0.1,0-0.2,0c-2.1-0.3-4.3-0.6-6.4-0.9c-1.6-0.2-2.8,0.1-4,1
			c-2.3,1.8-4.6,3.5-6.9,5.3l-2.9,2.2c-0.4,0.3-0.9,0.3-1.2,0l-1.9-1.5c-1.4-1.1-2.9-2.2-4.3-3.3c-0.9-0.7-1.7-1.3-2.3-1.8
			c-3.1-2.4-3.1-2.4-6.1-1.9c-1,0.1-2.3,0.3-4,0.5C34.5,100.6,33.8,100.7,33.2,100.8z M41.3,97.8c1.6,0,2.5,0.6,5.1,2.6
			c0.6,0.5,1.4,1.1,2.3,1.7c1.5,1.1,2.9,2.2,4.4,3.3l1.3,1l2.3-1.8c2.4-1.8,4.6-3.5,6.9-5.3c1.7-1.3,3.4-1.8,5.5-1.4
			c2.1,0.3,4.3,0.6,6.4,0.9c0.3,0,0.6,0.1,0.9,0.1c0.1,0,0.2,0,0.3,0c1.1,0.1,2.1,0.3,3.2,0.4c0.5,0.1,0.6,0.1,0.8-0.5
			c0.6-1.5,1.2-3.1,1.9-4.6c0.7-1.8,1.5-3.6,2.2-5.4c0.8-2.2,2.2-3.6,4.4-4.4c2.6-1,5.3-2.1,7.9-3.2c0.9-0.4,1.7-0.7,2.6-1.1
			c-0.1-0.9-0.2-1.8-0.3-2.7c-0.4-2.8-0.7-5.5-1.1-8.2c-0.4-2.5,0.1-4.5,1.6-6.3l0,0c1.7-2.2,3.4-4.3,5.1-6.6
			c0.6-0.8,1.1-1.5,1.7-2.3c-0.4-0.6-0.8-1.2-1.3-1.7c-1.2-1.7-2.4-3.4-3.8-4.8c-3.1-3.3-4.1-7-3-11.7c0.5-1.9,0.7-4,0.9-5.9
			c0.1-0.7,0.1-1.3,0.2-2c-0.9-0.4-1.8-0.8-2.7-1.1c-2.7-1.1-5.3-2.2-7.9-3.2c-2.1-0.8-3.4-2.2-4.2-4.3c-0.9-2.2-1.8-4.5-2.7-6.7
			l-1-2.3c-0.2-0.5-0.4-1-0.7-1.5l-2.8,0.4c-3.1,0.4-6.1,0.8-9.1,1.2c-1.8,0.2-3.4-0.2-4.9-1.4c-1.2-0.9-2.4-1.9-3.6-2.8
			c-1.6-1.2-3.3-2.5-4.9-3.8c-0.7-0.6-0.9-0.6-1.5-0.1c-1.2,1-2.4,1.9-3.6,2.8c-1.3,1-2.7,2-4,3.1c-2.2,1.9-4.6,2.5-7.7,2
			c-2.5-0.4-5.1-0.7-7.6-1C29.9,9.1,29,9,28.2,8.9c-0.4,0.9-0.7,1.8-1.1,2.6c-1.1,2.7-2.2,5.3-3.3,7.9c-0.8,2.1-2.1,3.4-4.1,4.2
			c-2.7,1.1-5.3,2.1-8,3.3C10.8,27.3,9.9,27.7,9,28l0.4,2.7c0.4,2.7,0.7,5.6,1.1,8.3c0.4,2.4-0.1,4.3-1.5,6
			c-1.1,1.4-2.2,2.8-3.3,4.3c-1,1.4-2.1,2.8-3.2,4.1c-0.5,0.6-0.5,0.8,0,1.4c1.2,1.5,2.3,3,3.4,4.4c1,1.4,2.1,2.7,3.1,4.1
			c1.3,1.6,1.7,3.3,1.4,5.4c-0.2,1.4-0.4,2.8-0.6,4.3c-0.3,2.2-0.6,4.5-0.9,6.7C9,80.3,9,80.3,9.5,80.5c1.7,0.7,3.4,1.4,5,2.1
			c1.7,0.7,3.5,1.4,5.2,2.1c1.9,0.8,3.3,2.1,4,4.1c0.6,1.6,1.3,3.3,2,4.9c0.7,1.7,1.4,3.5,2.1,5.2c0.2,0.6,0.3,0.6,0.9,0.5
			c2.2-0.4,4.2-0.7,6.1-0.9c1.7-0.2,2.9-0.4,3.9-0.5C39.9,97.9,40.7,97.8,41.3,97.8z"/>
	</g>
	<g>
		<path fill="#333333" d="M54.5,87.4c-4.1,0-8.3-0.8-12.3-2.3c-11.8-4.4-20.4-16.3-21-28.9c-0.3-7.1,1.2-13.5,4.9-19.7
			c0.3-0.5,0.9-0.6,1.4-0.4c0.5,0.3,0.6,0.9,0.4,1.4c-3.4,5.8-4.9,11.9-4.6,18.6c0.6,11.8,8.7,22.9,19.7,27.1
			c8.9,3.3,18.2,2.8,26.3-1.6c8.1-4.3,13.7-11.8,15.8-21.1c3.3-14.3-4.6-29.4-18.3-35.2c-0.5-0.2-0.7-0.8-0.5-1.3
			c0.2-0.5,0.8-0.7,1.3-0.5C82,29.7,90.3,45.8,86.9,61c-2.2,9.8-8.2,17.8-16.8,22.4C65.2,86.1,59.9,87.4,54.5,87.4z"/>
	</g>
	<g>
		<path fill="#333333" d="M34.7,29.5c-0.3,0-0.6-0.1-0.8-0.4c-0.3-0.4-0.2-1.1,0.2-1.4c4.3-3.2,8.8-5.2,13.5-6.1
			c2.8-0.5,7.1-1,11-0.2c0.5,0.1,0.9,0.6,0.8,1.2s-0.6,0.9-1.2,0.8c-3.8-0.8-8-0.2-10.2,0.2c-4.5,0.8-8.6,2.7-12.7,5.7
			C35.1,29.5,34.9,29.5,34.7,29.5z"/>
	</g>
</g>
</svg>
