<?xml version="1.0" encoding="utf-8"?>
<!-- Generator: Adobe Illustrator 18.1.1, SVG Export Plug-In . SVG Version: 6.00 Build 0)  -->
<svg version="1.1" xmlns="http://www.w3.org/2000/svg" xmlns:xlink="http://www.w3.org/1999/xlink" x="0px" y="0px"
	 viewBox="0 0 569.3 999.1" enable-background="new 0 0 569.3 999.1" xml:space="preserve">
<g id="baixo">
</g>
<g id="Camada_4">
</g>
<g id="esquerda">
	<path fill="#333333" d="M489.6,0c-21.4,4.4-36.9,17.6-51.8,32.6C300.2,170.5,162.4,308.2,24.6,445.8C3,467.5-6.1,492.6,4.3,522
		c3.8,10.6,10.8,21,18.8,29.1c141.3,141.9,283,283.5,424.7,425.1c21.5,21.5,47.2,28.8,76,18c27-10.1,42.3-30.7,45.1-59.5
		c2.3-23.3-7-42.4-23.3-58.6c-31.8-31.6-63.5-63.4-95.2-95.2c-91.1-91-182.1-182.1-273.2-273.1c-2.5-2.5-5.6-4.5-10.2-11
		c3.4-1.9,7.5-3.2,10.1-5.9c122.7-122.4,245.2-245,367.8-367.5c21-21,30-45.3,20.9-74.5c-7.2-23-22.7-38.1-45.6-45.5
		c-3.7-1.2-7.4-2.4-11.1-3.6C502.6,0,496.1,0,489.6,0z"/>
</g>
<g id="direita">
</g>
</svg>
