<?xml version="1.0" encoding="utf-8"?>
<!-- Generator: Adobe Illustrator 18.1.1, SVG Export Plug-In . SVG Version: 6.00 Build 0)  -->
<svg version="1.1" id="Camada_1" xmlns="http://www.w3.org/2000/svg" xmlns:xlink="http://www.w3.org/1999/xlink" x="0px" y="0px"
	 viewBox="0 0 171 74" enable-background="new 0 0 171 74" xml:space="preserve">
<g>
	<g id="XMLID_366_">
		<g id="XMLID_378_">
			<path fill="#333333" d="M59.9,1.1h13.7V55c0,5.2,3.2,5.1,6.1,5.1h24.6v12.6H74.8c-7.8,0-14.9-2.9-14.9-14V1.1z"/>
		</g>
		<g id="XMLID_372_">
			<g id="XMLID_377_">
				<polygon fill="none" points="147.2,44.8 143.1,32 131.6,44.8 				"/>
			</g>
			<g id="XMLID_376_">
				<polygon fill="#F9BF3B" points="127.9,57.1 150.9,57 128,57 				"/>
			</g>
			<g id="XMLID_373_">
				<path fill="#333333" d="M150.1,10.8l-3.1-10h-0.1h-14.6l-24.2,71.5h14.7l5.2-15.2l0,0h22.9l4.7,16.1h14.7L150.1,10.8z M143.1,32
					l4,12.8h-15.6L143.1,32z"/>
			</g>
		</g>
		<g id="XMLID_367_">
			<g id="XMLID_368_">
				<path fill="#333333" d="M5.8,9.3L11,1.5h19.2c14.7,0,20,8.7,20,18.9c0,6.5-2.8,13.9-9.7,15.1c5.9,1.1,10.8,7,10.8,16
					c0,13.2-5.9,20.8-20.8,20.8H1V12.9L5.8,9.3z M29.4,29.5c4.9,0,7.4-3,7.4-8c0-6.6-4-8.1-7.4-8.1H14.6v16.1H29.4z M29.9,60.3
					c4.1,0,7.8-1.9,7.8-9.5c0-5.2-2.1-9.9-7.8-9.9H14.6v19.4H29.9z"/>
			</g>
		</g>
	</g>
	<g id="XMLID_359_">
		<defs>
			<path id="SVGID_1_" d="M1,1.5h29.2c14.7,0,20,8.7,20,18.9c0,6.5-2.8,13.9-9.7,15.1c5.9,1.1,10.8,7,10.8,16
				c0,13.2-5.9,20.8-20.8,20.8H1V1.5z M29.4,29.5c4.9,0,7.4-3,7.4-8c0-6.6-4-8.1-7.4-8.1H14.6v16.1H29.4z M29.9,60.3
				c4.1,0,7.8-1.9,7.8-9.5c0-5.2-2.1-9.9-7.8-9.9H14.6v19.4H29.9z"/>
		</defs>
		<clipPath id="SVGID_2_">
			<use xlink:href="#SVGID_1_"  overflow="visible"/>
		</clipPath>
	</g>
	<defs>
		<filter id="Adobe_OpacityMaskFilter" filterUnits="userSpaceOnUse" x="1" y="0.8" width="250" height="72.3">
			
				<feColorMatrix  type="matrix" values="-1 0 0 0 1  0 -1 0 0 1  0 0 -1 0 1  0 0 0 1 0" color-interpolation-filters="sRGB" result="source"/>
		</filter>
	</defs>
	<mask maskUnits="userSpaceOnUse" x="1" y="0.8" width="250" height="72.3" id="XMLID_3_">
		<g id="XMLID_7_" filter="url(#Adobe_OpacityMaskFilter)">
			<linearGradient id="XMLID_4_" gradientUnits="userSpaceOnUse" x1="16.3609" y1="-27.9479" x2="235.222" y2="98.4116">
				<stop  offset="0" style="stop-color:#000000"/>
				<stop  offset="0.1928" style="stop-color:#4D4D4D"/>
				<stop  offset="0.8094" style="stop-color:#F7F7F7"/>
				<stop  offset="0.9918" style="stop-color:#FFFFFF"/>
			</linearGradient>
			<rect id="XMLID_8_" x="1" y="-1.3" fill="url(#XMLID_4_)" width="249.7" height="73"/>
		</g>
	</mask>
	<g id="XMLID_327_" mask="url(#XMLID_3_)">
		<defs>
			<polygon id="SVGID_3_" points="108.1,72.3 1,12.9 11,1.5 251,33.9 251,72.3 			"/>
		</defs>
		<clipPath id="SVGID_4_">
			<use xlink:href="#SVGID_3_"  overflow="visible"/>
		</clipPath>
		<g id="XMLID_344_" clip-path="url(#SVGID_4_)">
			<g id="XMLID_354_">
				<path fill="#333333" d="M59.9,1.1h13.7V55c0,5.2,3.2,5.1,6.1,5.1h24.6v12.6H74.8c-7.8,0-14.9-2.9-14.9-14V1.1z"/>
			</g>
			<g id="XMLID_350_">
				<g id="XMLID_353_">
					<polygon fill="none" points="147.2,44.8 143.1,32 131.6,44.8 					"/>
				</g>
				<g id="XMLID_352_">
					<polygon fill="#F9BF3B" points="127.9,57.1 150.9,57 128,57 					"/>
				</g>
				<g id="XMLID_351_">
					<polygon fill="#333333" points="131.5,44.9 131.6,44.8 143.1,32 153.2,20.9 150.1,10.8 146.9,0.8 146.8,0.8 132.2,0.8 
						108.1,72.3 122.8,72.3 127.9,57.1 128,57 150.9,57 147,44.9 					"/>
				</g>
			</g>
			<g id="XMLID_345_">
				<g id="XMLID_346_">
					<path fill="#333333" d="M1,1.5h29.2c14.7,0,20,8.7,20,18.9c0,6.5-2.8,13.9-9.7,15.1c5.9,1.1,10.8,7,10.8,16
						c0,13.2-5.9,20.8-20.8,20.8H1V1.5z M29.4,29.5c4.9,0,7.4-3,7.4-8c0-6.6-4-8.1-7.4-8.1H14.6v16.1H29.4z M29.9,60.3
						c4.1,0,7.8-1.9,7.8-9.5c0-5.2-2.1-9.9-7.8-9.9H14.6v19.4H29.9z"/>
				</g>
			</g>
		</g>
		<g id="XMLID_331_" opacity="0.16" clip-path="url(#SVGID_4_)">
			<g id="XMLID_342_">
				<path fill="#F2F2F2" d="M59.9,1.1h13.7V55c0,5.2,3.2,5.1,6.1,5.1h24.6v12.6H74.8c-7.8,0-14.9-2.9-14.9-14V1.1z"/>
			</g>
			<g id="XMLID_337_">
				<g id="XMLID_341_">
					<polygon fill="#F2F2F2" points="147.2,44.8 143.1,32 131.6,44.8 					"/>
				</g>
				<g id="XMLID_340_">
					<polygon fill="#F2F2F2" points="127.9,57.1 150.9,57 128,57 					"/>
				</g>
				<g id="XMLID_339_">
					<polygon fill="#F2F2F2" points="150.1,10.8 153.2,20.9 143.1,32 147.2,44.8 131.6,44.8 131.5,44.9 147,44.9 150.9,57 
						155.6,73.1 170.3,73.1 					"/>
				</g>
				<g id="XMLID_338_">
					<polygon fill="#F2F2F2" points="131.5,44.9 131.6,44.8 143.1,32 153.2,20.9 150.1,10.8 146.9,0.8 146.8,0.8 132.2,0.8 
						108.1,72.3 122.8,72.3 127.9,57.1 128,57 150.9,57 147,44.9 					"/>
				</g>
			</g>
			<g id="XMLID_332_">
				<g id="XMLID_333_">
					<path fill="#F2F2F2" d="M1,1.5h29.2c14.7,0,20,8.7,20,18.9c0,6.5-2.8,13.9-9.7,15.1c5.9,1.1,10.8,7,10.8,16
						c0,13.2-5.9,20.8-20.8,20.8H1V1.5z M29.4,29.5c4.9,0,7.4-3,7.4-8c0-6.6-4-8.1-7.4-8.1H14.6v16.1H29.4z M29.9,60.3
						c4.1,0,7.8-1.9,7.8-9.5c0-5.2-2.1-9.9-7.8-9.9H14.6v19.4H29.9z"/>
				</g>
			</g>
		</g>
	</g>
	<g id="XMLID_326_">
		<polyline fill="#F8C44E" points="147.2,44.8 150.9,57.1 155.6,73.1 170.3,73.1 153.3,20.8 153.2,20.9 143.1,32 147.2,44.8 		"/>
		<path fill="#F8C44E" d="M170.5,73.2h-15l0-0.1l-4.7-16.1L147,44.9L143,32l0-0.1l10.3-11.4l0.1,0.2L170.5,73.2z M155.7,73h14.5
			l-16.9-52l-10,11l4,12.7L151,57L155.7,73z"/>
	</g>
	<g id="XMLID_325_">
		<path fill="#F9BF3B" d="M1,12.8c0.7,0.2,1.5,0.3,2.3,0.3c4.6,0,8.4-3.7,8.4-8.4c0-0.9-0.2-2.3-0.6-3.3L1,12.8z"/>
	</g>
</g>
</svg>
