<?xml version="1.0" encoding="utf-8"?>
<!-- Generator: Adobe Illustrator 18.1.1, SVG Export Plug-In . SVG Version: 6.00 Build 0)  -->
<svg version="1.1" id="Camada_1" xmlns="http://www.w3.org/2000/svg" xmlns:xlink="http://www.w3.org/1999/xlink" x="0px" y="0px"
	 viewBox="0 0 250 73" enable-background="new 0 0 250 73" xml:space="preserve">
<g id="XMLID_257_">
	<rect id="XMLID_313_" x="178.5" y="1" fill="#F9BF3B" width="71.5" height="71.5"/>
	<g id="XMLID_299_">
		<path id="XMLID_311_" fill="#333333" d="M58.9,0.7h13.7v53.9c0,5.2,3.2,5.1,6.1,5.1h24.6v12.6H73.8c-7.8,0-14.9-2.9-14.9-14V0.7z"
			/>
		<g id="XMLID_305_">
			<polygon id="XMLID_310_" fill="none" points="146.2,44.4 142.1,31.6 130.6,44.4 			"/>
			<polygon id="XMLID_309_" fill="#F9BF3B" points="126.9,56.6 149.9,56.6 127,56.6 			"/>
			<path id="XMLID_306_" fill="#333333" d="M149.1,10.3l-3.1-10h-0.1h-14.6l-24.2,71.5h14.7l5.2-15.2l0,0h22.9l4.7,16.1h14.7
				L149.1,10.3z M142.1,31.6l4,12.8h-15.6L142.1,31.6z"/>
		</g>
		<g id="XMLID_300_">
			<path id="XMLID_301_" fill="#333333" d="M4.8,8.9L10,1h19.2c14.7,0,20,8.7,20,18.9c0,6.5-2.8,13.9-9.7,15.1
				c5.9,1.1,10.8,7,10.8,16c0,13.2-5.9,20.8-20.8,20.8H0V12.4L4.8,8.9z M28.4,29.1c4.9,0,7.4-3,7.4-8c0-6.6-4-8.1-7.4-8.1H13.6v16.1
				H28.4z M28.9,59.9c4.1,0,7.8-1.9,7.8-9.5c0-5.2-2.1-9.9-7.8-9.9H13.6v19.4H28.9z"/>
		</g>
	</g>
	<g id="XMLID_298_">
		<path fill="#FFFFFF" d="M185.4,45.1v-6.3h1.7c1.4,0,2.4,0.2,2.4,1.6c0,0.6-0.2,1-0.5,1.3c0.7,0.3,1.1,0.7,1.1,1.5
			c0,1.5-1.2,1.8-2.2,1.8H185.4z M186.6,39.8v1.5h1.1c0.3,0,0.8-0.1,0.8-0.7c0-0.7-0.3-0.8-0.9-0.8H186.6z M186.6,42.2v1.9h1.1
			c0.7,0,1.2-0.2,1.2-0.9c0-0.7-0.5-0.9-1.1-0.9H186.6z"/>
		<path fill="#FFFFFF" d="M196,45.1l-1.3-2.3h-1.2v2.3h-1.1v-6.3h2.3c1.2,0,2.2,0.4,2.2,1.8c0,1-0.5,1.5-1.1,1.8l1.4,2.6H196z
			 M193.5,39.8v1.9h0.8c1,0,1.3-0.4,1.3-1c0-0.6-0.2-0.9-1.2-0.9H193.5z"/>
		<path fill="#FFFFFF" d="M199.3,45.1v-6.3h1.1v6.3H199.3z"/>
		<path fill="#FFFFFF" d="M202.8,41.9c0-2,1.3-3.3,3.1-3.3c0.6,0,1.4,0.1,1.9,0.4l-0.1,1.1c-0.5-0.2-1.2-0.4-1.7-0.4
			c-1.3,0-1.9,0.9-1.9,2.1c0,1.3,0.7,2.2,2,2.2c0.3,0,0.6,0,0.9-0.1v-1.1h-0.7v-1h1.8v2.8c-0.5,0.3-1.4,0.5-2.1,0.5
			C204.1,45.2,202.8,43.9,202.8,41.9z"/>
		<path fill="#FFFFFF" d="M214.6,45.1v-2.7h-3v2.7h-1.1v-6.3h1.1v2.4h3v-2.4h1.1v6.3H214.6z"/>
		<path fill="#FFFFFF" d="M220.8,39.9v5.2h-1.1v-5.2h-1.8v-1.1h4.7v1.1H220.8z"/>
		<path fill="#FFFFFF" d="M185.4,56.5v-6.3h1.1v5.2h2.6v1.1H185.4z"/>
		<path fill="#FFFFFF" d="M191.4,56.5v-6.3h1.1v6.3H191.4z"/>
		<path fill="#FFFFFF" d="M195.1,56.1l0.1-1.3c0.3,0.3,1,0.7,2,0.7c0.7,0,1.1-0.2,1.1-0.7c0-0.6-0.7-0.9-1.5-1.1
			c-0.9-0.3-1.9-0.6-1.9-1.7c0-0.8,0.6-1.9,2.3-1.9c0.9,0,1.7,0.3,2,0.5l-0.1,1.2c-0.7-0.4-1.2-0.6-1.8-0.6c-0.5,0-1.1,0.1-1.1,0.7
			c0,0.5,0.6,0.7,1.3,0.9c1,0.3,2.2,0.7,2.2,2c0,0.7-0.3,1.8-2.4,1.8C196.2,56.6,195.4,56.4,195.1,56.1z"/>
		<path fill="#FFFFFF" d="M201.9,56.5v-6.3h1.7c1.4,0,2.4,0.2,2.4,1.6c0,0.6-0.2,1-0.5,1.3c0.7,0.3,1.1,0.7,1.1,1.5
			c0,1.5-1.2,1.8-2.2,1.8H201.9z M203.1,51.2v1.5h1.1c0.3,0,0.8-0.1,0.8-0.7c0-0.7-0.3-0.8-0.9-0.8H203.1z M203.1,53.6v1.9h1.1
			c0.7,0,1.2-0.2,1.2-0.9c0-0.7-0.5-0.9-1.1-0.9H203.1z"/>
		<path fill="#FFFFFF" d="M208.6,53.3c0-2,1.3-3.3,3.1-3.3c1.8,0,3.1,1.3,3.1,3.3s-1.3,3.3-3.1,3.3
			C209.9,56.6,208.6,55.3,208.6,53.3z M209.9,53.3c0,1.3,0.6,2.2,1.8,2.2c1.2,0,1.8-0.9,1.8-2.2s-0.6-2.2-1.8-2.2
			C210.5,51.2,209.9,52.1,209.9,53.3z"/>
		<path fill="#FFFFFF" d="M221.2,56.5l-2.9-4.3v4.3h-1.1v-6.3h1.1l2.7,4v-4h1.1v6.3H221.2z"/>
		<path fill="#FFFFFF" d="M189.1,67.8l-0.5-1.5h-2.1l-0.5,1.5h-1.2l2.2-6.3h1.1l2.2,6.3H189.1z M187.6,63.4l-0.6,1.8h1.3L187.6,63.4
			z"/>
		<path fill="#FFFFFF" d="M191.5,64.7c0-2,1.3-3.3,3.1-3.3c0.6,0,1.4,0.1,1.9,0.4l-0.1,1.1c-0.5-0.2-1.2-0.4-1.7-0.4
			c-1.3,0-1.9,0.9-1.9,2.1c0,1.3,0.7,2.2,2,2.2c0.3,0,0.6,0,0.9-0.1v-1.1h-0.7v-1h1.8v2.8c-0.5,0.3-1.4,0.5-2.1,0.5
			C192.8,68,191.5,66.7,191.5,64.7z"/>
		<path fill="#FFFFFF" d="M198.7,67.8v-6.3h4v1.1h-2.8V64h2.2v1.1h-2.2v1.6h2.9v1.1H198.7z"/>
		<path fill="#FFFFFF" d="M208.7,67.8l-2.9-4.3v4.3h-1.1v-6.3h1.1l2.7,4v-4h1.1v6.3H208.7z"/>
		<path fill="#FFFFFF" d="M211.5,64.7c0-2,1.3-3.3,3.1-3.3c0.7,0,1.3,0.1,1.8,0.4l-0.1,1.1c-0.5-0.2-1-0.4-1.7-0.4
			c-1.2,0-1.8,0.9-1.8,2.2s0.6,2.2,1.8,2.2c0.7,0,1.1-0.2,1.7-0.4l0.1,1.1c-0.5,0.2-1.1,0.4-1.8,0.4C212.8,68,211.5,66.7,211.5,64.7
			z"/>
		<path fill="#FFFFFF" d="M220.8,65.1v2.8h-1.1v-2.8l-2.2-3.5h1.2l1.5,2.5l1.5-2.5h1.2L220.8,65.1z"/>
	</g>
	<g id="XMLID_292_">
		<defs>
			<path id="XMLID_294_" d="M0,1h29.2c14.7,0,20,8.7,20,18.9c0,6.5-2.8,13.9-9.7,15.1c5.9,1.1,10.8,7,10.8,16
				c0,13.2-5.9,20.8-20.8,20.8H0V1z M28.4,29.1c4.9,0,7.4-3,7.4-8c0-6.6-4-8.1-7.4-8.1H13.6v16.1H28.4z M28.9,59.9
				c4.1,0,7.8-1.9,7.8-9.5c0-5.2-2.1-9.9-7.8-9.9H13.6v19.4H28.9z"/>
		</defs>
		<clipPath id="XMLID_2_">
			<use xlink:href="#XMLID_294_"  overflow="visible"/>
		</clipPath>
	</g>
	<defs>
		<filter id="Adobe_OpacityMaskFilter" filterUnits="userSpaceOnUse" x="178.5" y="23.8" width="71.5" height="48.7">
			<feColorMatrix  type="matrix" values="1 0 0 0 0  0 1 0 0 0  0 0 1 0 0  0 0 0 1 0"/>
		</filter>
	</defs>
	<mask maskUnits="userSpaceOnUse" x="178.5" y="23.8" width="71.5" height="48.7" id="XMLID_3_">
		<g id="XMLID_38_" filter="url(#Adobe_OpacityMaskFilter)">
			<linearGradient id="XMLID_4_" gradientUnits="userSpaceOnUse" x1="170.2826" y1="11.9641" x2="256.6487" y2="61.8276">
				<stop  offset="0" style="stop-color:#CCCCCC"/>
				<stop  offset="0.9221" style="stop-color:#000000"/>
				<stop  offset="0.9298" style="stop-color:#4B4B4A"/>
				<stop  offset="0.9299" style="stop-color:#4E4E4D"/>
			</linearGradient>
			<rect id="XMLID_39_" x="177" y="0.4" fill="url(#XMLID_4_)" width="73" height="73"/>
		</g>
	</mask>
	<polygon id="XMLID_289_" opacity="0.2" mask="url(#XMLID_3_)" fill="#F2F2F2" points="178.5,23.8 178.5,72.5 250,72.5 250,33.4 	
		"/>
	<defs>
		<filter id="Adobe_OpacityMaskFilter_1_" filterUnits="userSpaceOnUse" x="0" y="0.3" width="250" height="72.3">
			
				<feColorMatrix  type="matrix" values="-1 0 0 0 1  0 -1 0 0 1  0 0 -1 0 1  0 0 0 1 0" color-interpolation-filters="sRGB" result="source"/>
		</filter>
	</defs>
	<mask maskUnits="userSpaceOnUse" x="0" y="0.3" width="250" height="72.3" id="XMLID_5_">
		<g id="XMLID_7_" filter="url(#Adobe_OpacityMaskFilter_1_)">
			<linearGradient id="XMLID_6_" gradientUnits="userSpaceOnUse" x1="15.3609" y1="-28.3856" x2="234.222" y2="97.9739">
				<stop  offset="0" style="stop-color:#000000"/>
				<stop  offset="0.1928" style="stop-color:#4D4D4D"/>
				<stop  offset="0.8094" style="stop-color:#F7F7F7"/>
				<stop  offset="0.9918" style="stop-color:#FFFFFF"/>
			</linearGradient>
			<rect id="XMLID_8_" x="0" y="-1.7" fill="url(#XMLID_6_)" width="249.7" height="73"/>
		</g>
	</mask>
	<g id="XMLID_260_" mask="url(#XMLID_5_)">
		<defs>
			<polygon id="XMLID_263_" points="107.1,71.8 0,12.4 10,1 250,33.4 250,71.8 			"/>
		</defs>
		<clipPath id="XMLID_9_">
			<use xlink:href="#XMLID_263_"  overflow="visible"/>
		</clipPath>
		<g id="XMLID_277_" clip-path="url(#XMLID_9_)">
			<path id="XMLID_287_" fill="#333333" d="M58.9,0.7h13.7v53.9c0,5.2,3.2,5.1,6.1,5.1h24.6v12.6H73.8c-7.8,0-14.9-2.9-14.9-14V0.7z
				"/>
			<g id="XMLID_283_">
				<polygon id="XMLID_286_" fill="none" points="146.2,44.4 142.1,31.6 130.6,44.4 				"/>
				<polygon id="XMLID_285_" fill="#F9BF3B" points="126.9,56.6 149.9,56.6 127,56.6 				"/>
				<polygon id="XMLID_284_" fill="#333333" points="130.5,44.4 130.6,44.4 142.1,31.6 152.2,20.4 149.1,10.3 145.9,0.3 145.8,0.3 
					131.2,0.3 107.1,71.8 121.8,71.8 126.9,56.6 127,56.6 149.9,56.6 146,44.4 				"/>
			</g>
			<g id="XMLID_278_">
				<path id="XMLID_279_" fill="#333333" d="M0,1h29.2c14.7,0,20,8.7,20,18.9c0,6.5-2.8,13.9-9.7,15.1c5.9,1.1,10.8,7,10.8,16
					c0,13.2-5.9,20.8-20.8,20.8H0V1z M28.4,29.1c4.9,0,7.4-3,7.4-8c0-6.6-4-8.1-7.4-8.1H13.6v16.1H28.4z M28.9,59.9
					c4.1,0,7.8-1.9,7.8-9.5c0-5.2-2.1-9.9-7.8-9.9H13.6v19.4H28.9z"/>
			</g>
		</g>
		<g id="XMLID_264_" opacity="0.16" clip-path="url(#XMLID_9_)">
			<path id="XMLID_275_" fill="#F2F2F2" d="M58.9,0.7h13.7v53.9c0,5.2,3.2,5.1,6.1,5.1h24.6v12.6H73.8c-7.8,0-14.9-2.9-14.9-14V0.7z
				"/>
			<g id="XMLID_270_">
				<polygon id="XMLID_274_" fill="#F2F2F2" points="146.2,44.4 142.1,31.6 130.6,44.4 				"/>
				<polygon id="XMLID_273_" fill="#F2F2F2" points="126.9,56.6 149.9,56.6 127,56.6 				"/>
				<polygon id="XMLID_272_" fill="#F2F2F2" points="149.1,10.3 152.2,20.4 142.1,31.6 146.2,44.4 130.6,44.4 130.5,44.4 146,44.4 
					149.9,56.6 154.6,72.7 169.3,72.7 				"/>
				<polygon id="XMLID_271_" fill="#F2F2F2" points="130.5,44.4 130.6,44.4 142.1,31.6 152.2,20.4 149.1,10.3 145.9,0.3 145.8,0.3 
					131.2,0.3 107.1,71.8 121.8,71.8 126.9,56.6 127,56.6 149.9,56.6 146,44.4 				"/>
			</g>
			<g id="XMLID_265_">
				<path id="XMLID_266_" fill="#F2F2F2" d="M0,1h29.2c14.7,0,20,8.7,20,18.9c0,6.5-2.8,13.9-9.7,15.1c5.9,1.1,10.8,7,10.8,16
					c0,13.2-5.9,20.8-20.8,20.8H0V1z M28.4,29.1c4.9,0,7.4-3,7.4-8c0-6.6-4-8.1-7.4-8.1H13.6v16.1H28.4z M28.9,59.9
					c4.1,0,7.8-1.9,7.8-9.5c0-5.2-2.1-9.9-7.8-9.9H13.6v19.4H28.9z"/>
			</g>
		</g>
	</g>
	<polyline id="XMLID_259_" fill="#F8C44E" stroke="#F8C44E" stroke-width="0.25" stroke-miterlimit="10" points="146.2,44.4 
		149.9,56.6 154.6,72.7 169.3,72.7 152.3,20.3 152.2,20.4 142.1,31.6 146.2,44.4 	"/>
	<path id="XMLID_258_" fill="#F9BF3B" d="M0,12.4c0.7,0.2,1.5,0.3,2.3,0.3c4.6,0,8.4-3.7,8.4-8.4C10.6,3.5,10.5,2,10,1L0,12.4z"/>
</g>
</svg>
