<?xml version="1.0" encoding="utf-8"?>
<!-- Generator: Adobe Illustrator 18.1.1, SVG Export Plug-In . SVG Version: 6.00 Build 0)  -->
<svg version="1.1" id="Camada_1" xmlns="http://www.w3.org/2000/svg" xmlns:xlink="http://www.w3.org/1999/xlink" x="0px" y="0px"
	 viewBox="0 0 74 74" enable-background="new 0 0 74 74" xml:space="preserve">
<g>
	<g id="XMLID_380_">
		<rect x="1.3" y="1.5" fill="#F9BF3B" width="71.5" height="71.5"/>
	</g>
	<g id="XMLID_365_">
		<path fill="#FFFFFF" d="M8.2,45.5v-6.3h1.7c1.4,0,2.4,0.2,2.4,1.6c0,0.6-0.2,1-0.5,1.3c0.7,0.3,1.1,0.7,1.1,1.5
			c0,1.5-1.2,1.8-2.2,1.8H8.2z M9.3,40.2v1.5h1.1c0.3,0,0.8-0.1,0.8-0.7c0-0.7-0.3-0.8-0.9-0.8H9.3z M9.3,42.7v1.9h1.1
			c0.7,0,1.2-0.2,1.2-0.9c0-0.7-0.5-0.9-1.1-0.9H9.3z"/>
		<path fill="#FFFFFF" d="M18.8,45.5l-1.3-2.3h-1.2v2.3h-1.1v-6.3h2.3c1.2,0,2.2,0.4,2.2,1.8c0,1-0.5,1.5-1.1,1.8l1.4,2.6H18.8z
			 M16.3,40.2v1.9h0.8c1,0,1.3-0.4,1.3-1c0-0.6-0.2-0.9-1.2-0.9H16.3z"/>
		<path fill="#FFFFFF" d="M22.1,45.5v-6.3h1.1v6.3H22.1z"/>
		<path fill="#FFFFFF" d="M25.6,42.4c0-2,1.3-3.3,3.1-3.3c0.6,0,1.4,0.1,1.9,0.4l-0.1,1.1c-0.5-0.2-1.2-0.4-1.7-0.4
			c-1.3,0-1.9,0.9-1.9,2.1c0,1.3,0.7,2.2,2,2.2c0.3,0,0.6,0,0.9-0.1v-1.1H29v-0.9h1.8v2.8c-0.5,0.3-1.4,0.5-2.1,0.5
			C26.9,45.6,25.6,44.3,25.6,42.4z"/>
		<path fill="#FFFFFF" d="M37.3,45.5v-2.7h-3v2.7h-1.1v-6.3h1.1v2.4h3v-2.4h1.1v6.3H37.3z"/>
		<path fill="#FFFFFF" d="M43.6,40.3v5.2h-1.1v-5.2h-1.8v-1.1h4.7v1.1H43.6z"/>
		<path fill="#FFFFFF" d="M8.2,56.9v-6.3h1.1v5.2h2.6v1.1H8.2z"/>
		<path fill="#FFFFFF" d="M14.1,56.9v-6.3h1.1v6.3H14.1z"/>
		<path fill="#FFFFFF" d="M17.8,56.6l0.1-1.3c0.3,0.3,1,0.7,2,0.7c0.7,0,1.1-0.2,1.1-0.7c0-0.6-0.7-0.9-1.5-1.1
			c-0.9-0.3-1.9-0.6-1.9-1.7c0-0.8,0.6-1.9,2.3-1.9c0.9,0,1.7,0.3,2,0.5l-0.1,1.2c-0.7-0.4-1.2-0.6-1.8-0.6c-0.5,0-1.1,0.1-1.1,0.7
			c0,0.5,0.6,0.7,1.3,0.9c1,0.3,2.2,0.7,2.2,2c0,0.7-0.3,1.8-2.4,1.8C18.9,57,18.2,56.8,17.8,56.6z"/>
		<path fill="#FFFFFF" d="M24.7,56.9v-6.3h1.7c1.4,0,2.4,0.2,2.4,1.6c0,0.6-0.2,1-0.5,1.3c0.7,0.3,1.1,0.7,1.1,1.5
			c0,1.5-1.2,1.8-2.2,1.8H24.7z M25.8,51.6v1.5H27c0.3,0,0.8-0.1,0.8-0.7c0-0.7-0.3-0.8-0.9-0.8H25.8z M25.8,54v1.9H27
			c0.7,0,1.2-0.2,1.2-0.9c0-0.7-0.5-0.9-1.1-0.9H25.8z"/>
		<path fill="#FFFFFF" d="M31.3,53.8c0-2,1.3-3.3,3.1-3.3c1.8,0,3.1,1.3,3.1,3.3S36.2,57,34.4,57C32.6,57,31.3,55.7,31.3,53.8z
			 M32.6,53.8c0,1.3,0.6,2.2,1.8,2.2c1.2,0,1.8-0.9,1.8-2.2s-0.6-2.2-1.8-2.2C33.2,51.6,32.6,52.5,32.6,53.8z"/>
		<path fill="#FFFFFF" d="M44,56.9l-2.9-4.3v4.3H40v-6.3h1.1l2.7,4v-4h1.1v6.3H44z"/>
		<path fill="#FFFFFF" d="M11.9,68.3l-0.5-1.5H9.3l-0.5,1.5H7.5L9.8,62h1.1l2.2,6.3H11.9z M10.3,63.8l-0.6,1.8H11L10.3,63.8z"/>
		<path fill="#FFFFFF" d="M14.2,65.1c0-2,1.3-3.3,3.1-3.3c0.6,0,1.4,0.1,1.9,0.4l-0.1,1.1c-0.5-0.2-1.2-0.4-1.7-0.4
			c-1.3,0-1.9,0.9-1.9,2.1c0,1.3,0.7,2.2,2,2.2c0.3,0,0.6,0,0.9-0.1v-1.1h-0.7v-0.9h1.8v2.8c-0.5,0.3-1.4,0.5-2.1,0.5
			C15.5,68.4,14.2,67.1,14.2,65.1z"/>
		<path fill="#FFFFFF" d="M21.4,68.3V62h4v1.1h-2.8v1.3h2.2v1.1h-2.2v1.6h2.9v1.1H21.4z"/>
		<path fill="#FFFFFF" d="M31.4,68.3L28.6,64v4.3h-1.1V62h1.1l2.7,4v-4h1.1v6.3H31.4z"/>
		<path fill="#FFFFFF" d="M34.3,65.1c0-2,1.3-3.3,3.1-3.3c0.7,0,1.3,0.1,1.8,0.4L39,63.3c-0.5-0.2-1-0.4-1.7-0.4
			c-1.2,0-1.8,0.9-1.8,2.2s0.6,2.2,1.8,2.2c0.7,0,1.1-0.2,1.7-0.4l0.1,1.1c-0.5,0.2-1.1,0.4-1.8,0.4C35.6,68.4,34.3,67.1,34.3,65.1z
			"/>
		<path fill="#FFFFFF" d="M43.5,65.5v2.8h-1.1v-2.8L40.2,62h1.2l1.5,2.5l1.5-2.5h1.2L43.5,65.5z"/>
	</g>
	<defs>
		<filter id="Adobe_OpacityMaskFilter" filterUnits="userSpaceOnUse" x="1.3" y="24.3" width="71.5" height="48.7">
			<feColorMatrix  type="matrix" values="1 0 0 0 0  0 1 0 0 0  0 0 1 0 0  0 0 0 1 0"/>
		</filter>
	</defs>
	<mask maskUnits="userSpaceOnUse" x="1.3" y="24.3" width="71.5" height="48.7" id="XMLID_3_">
		<g filter="url(#Adobe_OpacityMaskFilter)">
			<linearGradient id="XMLID_4_" gradientUnits="userSpaceOnUse" x1="-6.9696" y1="12.4018" x2="79.3964" y2="62.2653">
				<stop  offset="0" style="stop-color:#CCCCCC"/>
				<stop  offset="0.9221" style="stop-color:#000000"/>
				<stop  offset="0.9298" style="stop-color:#4B4B4A"/>
				<stop  offset="0.9299" style="stop-color:#4E4E4D"/>
			</linearGradient>
			<rect id="XMLID_1_" x="-0.3" y="0.8" fill="url(#XMLID_4_)" width="73" height="73"/>
		</g>
	</mask>
	<g id="XMLID_356_" opacity="0.2" mask="url(#XMLID_3_)">
		<polygon fill="#F2F2F2" points="1.3,24.3 1.3,72.9 72.7,72.9 72.7,33.9 		"/>
	</g>
</g>
<g>
	<defs>
		<filter id="Adobe_OpacityMaskFilter_1_" filterUnits="userSpaceOnUse" x="-177.3" y="0.8" width="250" height="72.3">
			
				<feColorMatrix  type="matrix" values="-1 0 0 0 1  0 -1 0 0 1  0 0 -1 0 1  0 0 0 1 0" color-interpolation-filters="sRGB" result="source"/>
		</filter>
	</defs>
	<mask maskUnits="userSpaceOnUse" x="-177.3" y="0.8" width="250" height="72.3" id="XMLID_5_">
		<g id="XMLID_7_" filter="url(#Adobe_OpacityMaskFilter_1_)">
			<linearGradient id="XMLID_6_" gradientUnits="userSpaceOnUse" x1="-161.8913" y1="-27.9479" x2="56.9698" y2="98.4116">
				<stop  offset="0" style="stop-color:#000000"/>
				<stop  offset="0.1928" style="stop-color:#4D4D4D"/>
				<stop  offset="0.8094" style="stop-color:#F7F7F7"/>
				<stop  offset="0.9918" style="stop-color:#FFFFFF"/>
			</linearGradient>
			<rect id="XMLID_8_" x="-177.3" y="-1.3" fill="url(#XMLID_6_)" width="249.7" height="73"/>
		</g>
	</mask>
	<g id="XMLID_327_" mask="url(#XMLID_5_)">
		<defs>
			<polygon id="SVGID_3_" points="-70.2,72.3 -177.3,12.9 -167.2,1.5 72.7,33.9 72.7,72.3 			"/>
		</defs>
		<clipPath id="SVGID_2_">
			<use xlink:href="#SVGID_3_"  overflow="visible"/>
		</clipPath>
	</g>
</g>
</svg>
